<svg xmlns="http://www.w3.org/2000/svg" xmlns:xlink="http://www.w3.org/1999/xlink" viewBox="0 0 500 500"><defs><clipPath id="freepik--clip-path--inject-12"><path d="M233.6,293.16a11.07,11.07,0,0,0-.13,3.92.52.52,0,0,0,.25.36c.9.57,5.14,2.78,17,3.43,12.16.68,19-.67,20.77-1.09a.54.54,0,0,0,.42-.58l-.31-3.59a.54.54,0,0,0-.52-.5l-36.91-2.39A.55.55,0,0,0,233.6,293.16Z" style="fill:none"></path></clipPath><clipPath id="freepik--clip-path-2--inject-12"><path d="M248.28,228.3c-.63.63.13,2.92-.77,4.63s.81,4.07,4.51,4.63,10.63,1.1,13.18-1.6.91-7.12-.3-8.13-1.89.3-4.89.34S250.48,226.12,248.28,228.3Z" style="fill:none"></path></clipPath><clipPath id="freepik--clip-path-3--inject-12"><path d="M274.39,295.72c.44,0,1.06-1.34,2-1.74s1.27-2.11.31-3.8-3-4.64-4.81-4.45-3,2.78-3,3.7.71.61,1.69,1.76S272.87,295.82,274.39,295.72Z" style="fill:none"></path></clipPath><clipPath id="freepik--clip-path-4--inject-12"><path d="M203.49,256.47c.17.4,1.62.54,2.31,1.28s2.42.48,3.68-1,3.35-4.38,2.54-6-3.63-1.84-4.49-1.53-.33.88-1.08,2.2S202.87,255.07,203.49,256.47Z" style="fill:none"></path></clipPath><clipPath id="freepik--clip-path-5--inject-12"><path d="M270.12,233.91c-3.5-1.17-5.48-1.25-6.66,2.05-2.7,7.51-4.16,29.12-4.16,35.9,0,4.51,12.68,6,14.49,4.51,2-1.68.23-33.25,1.77-38.45a1.75,1.75,0,0,0-.32-1.65C274.33,235.21,272.59,234.73,270.12,233.91Z" style="fill:none"></path></clipPath><clipPath id="freepik--clip-path-6--inject-12"><path d="M240.61,233.25c-2.41,1.11-4.32,2.3-5.17,5.45-2.41,8.87-4,25.79-4.7,32.5s9.2,2.76,10.46,1,.56-20.32,5.66-38.77a1.88,1.88,0,0,0-.05-1.51C246.26,231.22,242.82,232.22,240.61,233.25Z" style="fill:none"></path></clipPath></defs><g id="freepik--background-complete--inject-12"><rect y="409.4" width="500" height="0.25" style="fill:#ebebeb"></rect><rect x="47.68" y="418.92" width="42.43" height="0.25" style="fill:#ebebeb"></rect><rect x="116.89" y="416.21" width="78.77" height="0.25" style="fill:#ebebeb"></rect><rect x="91.11" y="428.21" width="9.89" height="0.25" style="fill:#ebebeb"></rect><rect x="408.72" y="426.53" width="36.4" height="0.25" style="fill:#ebebeb"></rect><rect x="386.69" y="426.53" width="13.13" height="0.25" style="fill:#ebebeb"></rect><rect x="178.56" y="422.31" width="54.56" height="0.25" style="fill:#ebebeb"></rect><rect x="322.53" y="428.21" width="8.69" height="0.25" style="fill:#ebebeb"></rect><path d="M237,364.8H43.91a5.71,5.71,0,0,1-5.7-5.71V87.66A5.71,5.71,0,0,1,43.91,82H237a5.71,5.71,0,0,1,5.71,5.71V359.09A5.71,5.71,0,0,1,237,364.8ZM43.91,82.2a5.46,5.46,0,0,0-5.45,5.46V359.09a5.46,5.46,0,0,0,5.45,5.46H237a5.47,5.47,0,0,0,5.46-5.46V87.66A5.47,5.47,0,0,0,237,82.2Z" style="fill:#ebebeb"></path><path d="M453.31,364.8H260.21a5.72,5.72,0,0,1-5.71-5.71V87.66A5.72,5.72,0,0,1,260.21,82h193.1A5.71,5.71,0,0,1,459,87.66V359.09A5.71,5.71,0,0,1,453.31,364.8ZM260.21,82.2a5.47,5.47,0,0,0-5.46,5.46V359.09a5.47,5.47,0,0,0,5.46,5.46h193.1a5.47,5.47,0,0,0,5.46-5.46V87.66a5.47,5.47,0,0,0-5.46-5.46Z" style="fill:#ebebeb"></path><circle cx="386.69" cy="277.09" r="36.22" style="fill:#ebebeb"></circle><path d="M378.34,351.44c-31.37,27.2-62.73,15.31-85.3-9.69s-29.26-40.12-67.52-5.5S107.71,409.4,107.71,409.4H476.36C479.33,370,455,285,378.34,351.44Z" style="fill:#fafafa"></path><path d="M23.78,409.4H418.45s12.66-5.58-33.67-35.4-101-21-128.33.5-62.57-14.36-130.25-38.84C42,305.2,18.78,390.38,23.78,409.4Z" style="fill:#e6e6e6"></path><path d="M467.16,185.59c-5.09-4.35-11.76-7.44-16.69-7.44-3.1,0-4.94,1.22-5.43,3.2a15.33,15.33,0,0,0-6.48-1.81c-3.37,0-4.58,2.1-3.38,5.05a20.67,20.67,0,0,0-5.64-1.13c-3.44-.13-5.37,1.07-5.56,3a7.57,7.57,0,0,0-2.41-.57c-2-.07-2.51,1.14-1.18,2.71a3.58,3.58,0,0,0,.26.29h54.48C474.33,187.38,469.62,185.67,467.16,185.59Z" style="fill:#f0f0f0"></path><path d="M241.31,166.19c-7.86-6.7-18.13-11.46-25.74-11.46-4.77,0-7.6,1.87-8.36,4.93a23.64,23.64,0,0,0-10-2.79c-5.18,0-7.05,3.23-5.21,7.78a31.37,31.37,0,0,0-8.68-1.74c-5.3-.2-8.28,1.65-8.57,4.66a12,12,0,0,0-3.72-.87c-3-.11-3.86,1.76-1.82,4.18.13.15.26.3.4.44h84C252.35,169,245.09,166.31,241.31,166.19Z" style="fill:#f0f0f0"></path><path d="M120.63,210.47a6.46,6.46,0,0,0-.74,0c-3.67-2.37-7.39-3.89-10-3.89-1.9,0-2.94.79-3.13,2.13-6.85-4.6-13.93-7.59-18.87-7.59-4,0-5.82,1.94-5.6,5.12-3.4-1.81-6.63-2.89-9.1-2.89-4.32,0-5,3.34-2.2,8.06h0a26,26,0,0,0-7.73-1.8c-4.47-.22-6.44,1.7-5.85,4.83a9.92,9.92,0,0,0-3.34-.89c-2.44-.12-2.72,1.61-.74,3.92h82.35C131.86,213.92,125.3,210.86,120.63,210.47Z" style="fill:#f0f0f0"></path></g><g id="freepik--Shadow--inject-12"><ellipse id="freepik--path--inject-12" cx="250" cy="443.24" rx="193.89" ry="11.32" style="fill:#f5f5f5"></ellipse></g><g id="freepik--Forest--inject-12"><path d="M253.6,421.56c-13.86,13.33-.8-13.92,24.43-35.12s.4-35.12-28.85-13.92-8.41-6.44,13-26.08,2.85-36.36-27.81-16,31.83-43.08-14.16-48.3c-36.55-4.15,7.91,65.07-24.46,47.65s-43.11-3-22.78,16.69,39.61,47.26,11.55,26.08-53.68-7.27-29.64,13.92,24.93,38.54,11.8,25.21-24.48-13.41-21.53,5.07c.72,4.59,3.28,9.24,7.35,13.65a11.81,11.81,0,0,0,8.78,3.38H277.87a41.23,41.23,0,0,0,8.19-17C290,398.24,267.47,408.24,253.6,421.56Z" style="fill:#BA68C8"></path><path d="M253.6,421.56c-13.86,13.33-.8-13.92,24.43-35.12s.4-35.12-28.85-13.92-8.41-6.44,13-26.08,2.85-36.36-27.81-16,31.83-43.08-14.16-48.3c-36.55-4.15,7.91,65.07-24.46,47.65s-43.11-3-22.78,16.69,39.61,47.26,11.55,26.08-53.68-7.27-29.64,13.92,24.93,38.54,11.8,25.21-24.48-13.41-21.53,5.07c.72,4.59,3.28,9.24,7.35,13.65a11.81,11.81,0,0,0,8.78,3.38H277.87a41.23,41.23,0,0,0,8.19-17C290,398.24,267.47,408.24,253.6,421.56Z" style="fill:#fff;opacity:0.8"></path><path d="M460.48,425.86c-.65-12.2-15.13-5.6-22.65,3.19s-3.25-9.19,11-23.18-6.45-23.18-23.63-9.19-7.35-4.25,4.45-17.21-4.91-24-23.28-10.58,14.85-28.44-19.56-31.89c-27.35-2.74,18.24,42.95-8.62,31.46s-31.89-2-13.34,11,37.83,31.19,13.39,17.21-40.39-4.79-18.86,9.19,25.5,25.44,13.41,16.64-20.35-8.85-14.67,3.35c1.41,3,4.16,6.09,8,9a11.68,11.68,0,0,0,7,2.24H457.8A19.9,19.9,0,0,0,460.48,425.86Z" style="fill:#BA68C8"></path><path d="M460.48,425.86c-.65-12.2-15.13-5.6-22.65,3.19s-3.25-9.19,11-23.18-6.45-23.18-23.63-9.19-7.35-4.25,4.45-17.21-4.91-24-23.28-10.58,14.85-28.44-19.56-31.89c-27.35-2.74,18.24,42.95-8.62,31.46s-31.89-2-13.34,11,37.83,31.19,13.39,17.21-40.39-4.79-18.86,9.19,25.5,25.44,13.41,16.64-20.35-8.85-14.67,3.35c1.41,3,4.16,6.09,8,9a11.68,11.68,0,0,0,7,2.24H457.8A19.9,19.9,0,0,0,460.48,425.86Z" style="fill:#fff;opacity:0.7000000000000001"></path><polygon points="321.94 443.24 336.11 291.01 352.92 291.01 356.09 443.24 321.94 443.24" style="fill:#BA68C8"></polygon><path d="M349.7,351.86c12.41-2.56,28.07-27.78,28.07-27.78s2.07-.4,4.44,2c-3.15,10.83-33.69,51.61-33.69,51.61Z" style="fill:#BA68C8"></path><path d="M336.67,314.6c-9.67,0-18.59-14.57-18.59-14.57a3.87,3.87,0,0,0-3.34,1c1.31,8,20.55,32.08,20.55,32.08Z" style="fill:#BA68C8"></path><path d="M314.74,301.05c1.89-1.48,2.37-1.06,2.37-1.06s6.45,16,16.37,16.56L336.11,291l9.65,5,2,106.4,3.36,40.85H336.32l2-49.68-4.12,5.28-7,44.4h-5.19l10.24-114.09C326.69,322,315.72,307,314.74,301.05Z" style="opacity:0.1"></path><path d="M353.47,304.09c1-4.51,6.78-7.07,12.89-5.71a14.59,14.59,0,0,1,3.61,1.31,15.06,15.06,0,0,1,11.67-1.81,15.82,15.82,0,0,1,8.82,5.17,19.43,19.43,0,0,1,6.44.36c8,1.79,13.48,8.06,12.16,14s-8.91,9.31-16.95,7.52c-.61-.13-1.2-.3-1.78-.48-3.11,4.9-10.56,7.36-18.37,5.62-9.33-2.07-15.64-9.34-14.11-16.24a9.67,9.67,0,0,1,.27-1C354.7,310.72,352.75,307.35,353.47,304.09Z" style="fill:#BA68C8"></path><path d="M353.47,304.09c1-4.51,6.78-7.07,12.89-5.71a14.59,14.59,0,0,1,3.61,1.31,15.06,15.06,0,0,1,11.67-1.81,15.82,15.82,0,0,1,8.82,5.17,19.43,19.43,0,0,1,6.44.36c8,1.79,13.48,8.06,12.16,14s-8.91,9.31-16.95,7.52c-.61-.13-1.2-.3-1.78-.48-3.11,4.9-10.56,7.36-18.37,5.62-9.33-2.07-15.64-9.34-14.11-16.24a9.67,9.67,0,0,1,.27-1C354.7,310.72,352.75,307.35,353.47,304.09Z" style="opacity:0.4"></path><path d="M306.88,294.24c.33,0,.64,0,1,.05,1-2.81,4.47-4.88,8.59-4.88,4.91,0,8.9,2.94,8.9,6.58a4.38,4.38,0,0,1,0,.51c2,.7,3.32,2.17,3.32,3.89,0,2.38-2.61,4.31-5.83,4.31a7.74,7.74,0,0,1-2-.25,7.76,7.76,0,0,1-5.66,2.2,8.11,8.11,0,0,1-5-1.61,10.1,10.1,0,0,1-3.27.54c-4.24,0-7.67-2.53-7.67-5.67S302.64,294.24,306.88,294.24Z" style="fill:#BA68C8"></path><path d="M306.88,294.24c.33,0,.64,0,1,.05,1-2.81,4.47-4.88,8.59-4.88,4.91,0,8.9,2.94,8.9,6.58a4.38,4.38,0,0,1,0,.51c2,.7,3.32,2.17,3.32,3.89,0,2.38-2.61,4.31-5.83,4.31a7.74,7.74,0,0,1-2-.25,7.76,7.76,0,0,1-5.66,2.2,8.11,8.11,0,0,1-5-1.61,10.1,10.1,0,0,1-3.27.54c-4.24,0-7.67-2.53-7.67-5.67S302.64,294.24,306.88,294.24Z" style="opacity:0.4"></path><path d="M413.93,295c1-11.23-11.49-21.94-27.8-23.94-1.24-.15-2.46-.24-3.67-.28-3-10.54-15.75-19.59-31.6-21.52a45.9,45.9,0,0,0-17.67,1.14c-1-.78-2.06-1.54-3.17-2.26-13.36-8.58-29.29-8.3-35.57.63-5.54,7.86-1.74,19.82,8.36,28.42a11.16,11.16,0,0,0-2.2,5.69c-.72,8.54,8.74,16.68,21.14,18.2a32,32,0,0,0,7.64,0c4.34,5.35,12.05,9.46,21.09,10.56,7.61.93,14.65-.46,19.77-3.42a41.91,41.91,0,0,0,12.42,3.48C399,313.75,413,306.26,413.93,295Z" style="fill:#BA68C8"></path><path d="M413.93,295c1-11.23-11.49-21.94-27.8-23.94-1.24-.15-2.46-.24-3.67-.28-3-10.54-15.75-19.59-31.6-21.52a45.9,45.9,0,0,0-17.67,1.14c-1-.78-2.06-1.54-3.17-2.26-13.36-8.58-29.29-8.3-35.57.63-5.54,7.86-1.74,19.82,8.36,28.42a11.16,11.16,0,0,0-2.2,5.69c-.72,8.54,8.74,16.68,21.14,18.2a32,32,0,0,0,7.64,0c4.34,5.35,12.05,9.46,21.09,10.56,7.61.93,14.65-.46,19.77-3.42a41.91,41.91,0,0,0,12.42,3.48C399,313.75,413,306.26,413.93,295Z" style="opacity:0.2"></path><path d="M314,250.57s-3.58,5.74,1,8.71C318.49,256.28,314,250.57,314,250.57Z" style="fill:#BA68C8"></path><path d="M290,262.87s3.74,5.64,8.33,2.73C297,261.19,290,262.87,290,262.87Z" style="fill:#BA68C8"></path><path d="M375.23,254.84s4.29,5.25.15,8.77C371.55,261.08,375.23,254.84,375.23,254.84Z" style="fill:#BA68C8"></path><path d="M341.7,251.91s-1.39,5.55,3.05,6.75C346.76,255.35,341.7,251.91,341.7,251.91Z" style="fill:#BA68C8"></path><path d="M392.54,283.61s-3.88-4.21-7.32-1.16C386.89,286,392.54,283.61,392.54,283.61Z" style="fill:#BA68C8"></path><path d="M333.85,267.63s-1.61,5.5,2.77,6.88C338.77,271.27,333.85,267.63,333.85,267.63Z" style="fill:#BA68C8"></path><path d="M341.58,288.9s-2.15,5.31,2.08,7.12C346.11,293,341.58,288.9,341.58,288.9Z" style="fill:#BA68C8"></path><path d="M360.05,271.51s-5.37-2-7.05,2.29C356.08,276.17,360.05,271.51,360.05,271.51Z" style="fill:#BA68C8"></path><path d="M416.48,288.91s-4.53-3.5-7.41.08C411.3,292.16,416.48,288.91,416.48,288.91Z" style="fill:#BA68C8"></path><path d="M393.77,307.58s-.09-5.72-4.69-5.73C388,305.57,393.77,307.58,393.77,307.58Z" style="fill:#BA68C8"></path><path d="M370.39,289.24s-5.73.17-5.68,4.76C368.44,295.05,370.39,289.24,370.39,289.24Z" style="fill:#BA68C8"></path><path d="M317.53,281.8s.34,5.72,4.93,5.53C323.39,283.56,317.53,281.8,317.53,281.8Z" style="fill:#BA68C8"></path><path d="M416.48,288.91a8.06,8.06,0,0,0-3.94-1.52c-3.66-8.09-13.89-14.76-26.41-16.29-1.24-.15-2.46-.24-3.67-.28a23.24,23.24,0,0,0-5.55-9.34c1.14-3.19-1.68-6.64-1.68-6.64a13.9,13.9,0,0,0-1.43,3.75,45.16,45.16,0,0,0-22.94-9.29,45.9,45.9,0,0,0-17.67,1.14c-1-.78-2.06-1.54-3.17-2.26-13.36-8.58-29.29-8.3-35.57.63-2.74,3.88-3.19,8.77-1.74,13.75a14,14,0,0,0-2.73.31,9.31,9.31,0,0,0,4.12,3.31,33.79,33.79,0,0,0,8.71,11.05,11.16,11.16,0,0,0-2.2,5.69c-.35,4.12,1.68,8.14,5.25,11.37-3.75.37-6.65,2.74-6.65,5.62,0,3.13,3.43,5.67,7.67,5.67a10.1,10.1,0,0,0,3.27-.54,8.11,8.11,0,0,0,5,1.61,9.54,9.54,0,0,0,1.71-.15l.25.48,0,.07c.18.34.37.68.56,1l.18.32.49.86.18.3c.22.39.45.77.69,1.16l.08.12c.21.36.44.72.66,1.08l.21.33.6.94c.07.1.13.2.19.3l.8,1.22.1.14.72,1.09.24.35.64.94.21.31.84,1.21.12.17.73,1,.24.34.66.93.19.26.83,1.15.15.21c.23.31.45.62.68.92l.24.33.59.8.21.29.75,1,.17.23.57.76.22.29.51.68c.07.08.13.17.19.25.2.26.4.51.58.76L321.94,443.24h34.15l-1.54-73.78c7.75-10.67,20.79-29.12,25.83-39.11,4.37-.73,8-2.84,9.95-5.9.58.18,1.17.35,1.78.48,8,1.79,15.63-1.57,16.95-7.52.77-3.46-.77-7-3.77-9.76,5-3,8.2-7.42,8.64-12.61a14.58,14.58,0,0,0-.42-4.88A11.43,11.43,0,0,0,416.48,288.91Zm-81.9,17-.86,8.31c-5-1.41-9.5-6-12.39-9.63a7.5,7.5,0,0,0,1.45.15c2.84,0,5.2-1.5,5.72-3.48l.89-.08A24.73,24.73,0,0,0,334.58,305.87Zm19.57,44.23-.8-38.16c1.19.06,2.35.05,3.48,0a15.11,15.11,0,0,0,1.29.93,9.67,9.67,0,0,0-.27,1c-1.53,6.9,4.78,14.17,14.11,16.24.52.12,1,.21,1.55.29C368.94,336.69,361.38,346.07,354.15,350.1Z" style="fill:#fff;opacity:0.5"></path><polygon points="134.47 436.77 116.86 343.16 105.12 343.16 110.61 436.77 134.47 436.77" style="fill:#BA68C8"></polygon><path d="M110.45,380.58c-8.8-1.58-21-17.08-21-17.08a3.76,3.76,0,0,0-3,1.21c2.75,6.66,26.15,31.74,26.15,31.74Z" style="fill:#BA68C8"></path><path d="M117.67,357.67c6.75,0,12.25-9,12.25-9a3.12,3.12,0,0,1,2.38.63c-.51,4.92-12.73,19.72-12.73,19.72Z" style="fill:#BA68C8"></path><path d="M132.3,349.34c-1.39-.92-1.71-.66-1.71-.66s-3.69,9.87-10.59,10.19l-3.13-15.71-6.5,3.06,4,65.43-.28,25.12h10.34l-3.9-30.55,3.15,3.25,7.17,27.3h3.62l-12.93-70.16C125,362.2,131.92,353,132.3,349.34Z" style="opacity:0.1"></path><path d="M105.39,351.21c-.93-2.78-5.09-4.36-9.29-3.52a10.6,10.6,0,0,0-2.46.81,12.1,12.1,0,0,0-8.24-1.11,10.33,10.33,0,0,0-5.91,3.18,14.75,14.75,0,0,0-4.47.22c-5.53,1.1-9,4.95-7.79,8.61s6.7,5.72,12.22,4.62a11.44,11.44,0,0,0,1.22-.3c2.43,3,7.75,4.53,13.12,3.46,6.42-1.27,10.46-5.74,9-10a6.25,6.25,0,0,0-.24-.6C104.87,355.28,106.06,353.21,105.39,351.21Z" style="fill:#BA68C8"></path><path d="M105.39,351.21c-.93-2.78-5.09-4.36-9.29-3.52a10.6,10.6,0,0,0-2.46.81,12.1,12.1,0,0,0-8.24-1.11,10.33,10.33,0,0,0-5.91,3.18,14.75,14.75,0,0,0-4.47.22c-5.53,1.1-9,4.95-7.79,8.61s6.7,5.72,12.22,4.62a11.44,11.44,0,0,0,1.22-.3c2.43,3,7.75,4.53,13.12,3.46,6.42-1.27,10.46-5.74,9-10a6.25,6.25,0,0,0-.24-.6C104.87,355.28,106.06,353.21,105.39,351.21Z" style="opacity:0.4"></path><path d="M137.45,345.15c-.23,0-.45,0-.67,0-.85-1.73-3.37-3-6.25-3-3.43,0-6.06,1.81-5.88,4,0,.11,0,.21,0,.32-1.34.42-2.21,1.33-2.12,2.39.12,1.46,2,2.65,4.29,2.65a5.89,5.89,0,0,0,1.36-.16,6.25,6.25,0,0,0,4.06,1.36,5.78,5.78,0,0,0,3.42-1,8.21,8.21,0,0,0,2.31.33c3,0,5.24-1.56,5.08-3.48S140.41,345.15,137.45,345.15Z" style="fill:#BA68C8"></path><path d="M137.45,345.15c-.23,0-.45,0-.67,0-.85-1.73-3.37-3-6.25-3-3.43,0-6.06,1.81-5.88,4,0,.11,0,.21,0,.32-1.34.42-2.21,1.33-2.12,2.39.12,1.46,2,2.65,4.29,2.65a5.89,5.89,0,0,0,1.36-.16,6.25,6.25,0,0,0,4.06,1.36,5.78,5.78,0,0,0,3.42-1,8.21,8.21,0,0,0,2.31.33c3,0,5.24-1.56,5.08-3.48S140.41,345.15,137.45,345.15Z" style="opacity:0.4"></path><path d="M62.69,345.64c-1.24-6.91,6.92-13.5,18.21-14.72q1.29-.14,2.55-.18c1.6-6.48,10-12,21-13.23a36.91,36.91,0,0,1,12.41.7q1-.72,2.1-1.38c8.9-5.28,20-5.11,24.89.38,4.26,4.84,2.22,12.19-4.41,17.48a6.92,6.92,0,0,1,1.83,3.5c.94,5.25-5.26,10.25-13.85,11.19a25.09,25.09,0,0,1-5.34,0c-2.76,3.29-7.94,5.81-14.2,6.49a26,26,0,0,1-14-2.1,30.77,30.77,0,0,1-8.51,2.14C74.08,357.15,63.93,352.54,62.69,345.64Z" style="fill:#BA68C8"></path><path d="M62.69,345.64c-1.24-6.91,6.92-13.5,18.21-14.72q1.29-.14,2.55-.18c1.6-6.48,10-12,21-13.23a36.91,36.91,0,0,1,12.41.7q1-.72,2.1-1.38c8.9-5.28,20-5.11,24.89.38,4.26,4.84,2.22,12.19-4.41,17.48a6.92,6.92,0,0,1,1.83,3.5c.94,5.25-5.26,10.25-13.85,11.19a25.09,25.09,0,0,1-5.34,0c-2.76,3.29-7.94,5.81-14.2,6.49a26,26,0,0,1-14-2.1,30.77,30.77,0,0,1-8.51,2.14C74.08,357.15,63.93,352.54,62.69,345.64Z" style="opacity:0.2"></path><path d="M130.24,318.29s2.79,3.54-.24,5.36C127.42,321.81,130.24,318.29,130.24,318.29Z" style="fill:#BA68C8"></path><path d="M147.67,325.85s-2.33,3.48-5.68,1.69C142.66,324.83,147.67,325.85,147.67,325.85Z" style="fill:#BA68C8"></path><path d="M87.7,320.92s-2.73,3.23.34,5.39C90.59,324.75,87.7,320.92,87.7,320.92Z" style="fill:#BA68C8"></path><path d="M111,319.11s1.25,3.42-1.79,4.16C107.61,321.23,111,319.11,111,319.11Z" style="fill:#BA68C8"></path><path d="M77.06,338.61s2.5-2.59,5-.71C81.12,340.05,77.06,338.61,77.06,338.61Z" style="fill:#BA68C8"></path><path d="M117.26,328.79s1.4,3.38-1.59,4.22C114,331,117.26,328.79,117.26,328.79Z" style="fill:#BA68C8"></path><path d="M112.94,341.86s1.76,3.27-1.1,4.38C110,344.39,112.94,341.86,112.94,341.86Z" style="fill:#BA68C8"></path><path d="M99.15,331.17s3.65-1.22,5,1.41C102.16,334,99.15,331.17,99.15,331.17Z" style="fill:#BA68C8"></path><path d="M60.6,341.87s3-2.15,5.18.05C64.39,343.87,60.6,341.87,60.6,341.87Z" style="fill:#BA68C8"></path><path d="M77.41,353.35s-.22-3.52,3-3.53C81.35,352.12,77.41,353.35,77.41,353.35Z" style="fill:#BA68C8"></path><path d="M92.82,342.07s4,.11,4.21,2.93C94.48,345.64,92.82,342.07,92.82,342.07Z" style="fill:#BA68C8"></path><path d="M129.38,337.5s.05,3.51-3.17,3.4C125.38,338.58,129.38,337.5,129.38,337.5Z" style="fill:#BA68C8"></path><path d="M60.6,341.87a5.55,5.55,0,0,1,2.68-.94c2.14-5,9-9.07,17.62-10q1.29-.14,2.55-.18A12.71,12.71,0,0,1,86.86,325c-1-2,.84-4.08.84-4.08a8.84,8.84,0,0,1,1.19,2.31,31.4,31.4,0,0,1,15.55-5.72,36.91,36.91,0,0,1,12.41.7q1-.72,2.1-1.38c8.9-5.28,20-5.11,24.89.38a9.08,9.08,0,0,1,1.91,8.46,11.77,11.77,0,0,1,1.92.18,5.6,5.6,0,0,1-2.71,2,19,19,0,0,1-5.53,6.8,6.92,6.92,0,0,1,1.83,3.5c.45,2.53-.76,5-3.1,7,2.65.23,4.79,1.69,4.94,3.46.16,1.92-2.11,3.48-5.08,3.48a8.21,8.21,0,0,1-2.31-.33,5.78,5.78,0,0,1-3.42,1,6.78,6.78,0,0,1-1.2-.1l-.15.3,0,0-.34.62-.11.2-.3.53-.11.18c-.14.24-.28.48-.43.72l0,.07-.41.66a2.39,2.39,0,0,0-.13.21c-.13.19-.25.38-.37.57l-.12.19-.5.75-.06.09-.45.67-.15.21-.4.58-.13.19-.52.74-.08.11-.46.64-.15.21-.41.57-.12.16-.53.71-.09.12-.42.57-.16.21-.37.49-.13.17-.47.62a1.34,1.34,0,0,0-.11.14l-.36.47-.14.18L122,366l-.12.16-.37.46,12.93,70.16H110.61L108,391.4c-6-6.56-16-17.9-20-24a11.36,11.36,0,0,1-7.25-3.63,11.44,11.44,0,0,1-1.22.3c-5.52,1.1-11-1-12.22-4.62-.72-2.13.18-4.33,2.13-6-3.62-1.86-6.1-4.56-6.67-7.75a7.76,7.76,0,0,1,.05-3A9.57,9.57,0,0,1,60.6,341.87Zm58.09,10.43,1,5.11c3.41-.87,6.34-3.72,8.18-5.93a5.49,5.49,0,0,1-1,.1c-2,0-3.71-.92-4.17-2.14l-.63-.05A15,15,0,0,1,118.69,352.3Zm-11.44,27.2L105.87,356c-.82,0-1.63,0-2.43,0a9,9,0,0,1-.85.57,6.25,6.25,0,0,1,.24.6c1.42,4.24-2.62,8.71-9,10-.35.07-.71.13-1.06.18C96.24,371.25,102,377,107.25,379.5Z" style="fill:#fff;opacity:0.5"></path><path d="M259,356c-8.65,32.38,34.55,87.21,34.55,87.21h5.83C323.78,435.13,292.78,391.78,259,356Z" style="fill:#BA68C8"></path><path d="M259,356c-8.65,32.38,34.55,87.21,34.55,87.21h5.83C323.78,435.13,292.78,391.78,259,356Z" style="opacity:0.2"></path><path d="M286.53,356c-23.78,32.38,10.83,87.21,10.83,87.21h7.54C339.7,435.13,316.41,391.78,286.53,356Z" style="fill:#BA68C8"></path><path d="M286.53,356c-23.78,32.38,10.83,87.21,10.83,87.21h7.54C339.7,435.13,316.41,391.78,286.53,356Z" style="opacity:0.4"></path><polygon points="303.07 443.24 328.95 166.11 374.23 166.11 395.03 443.24 303.07 443.24" style="fill:#BA68C8"></polygon><path d="M333.82,200.27c-26,0-52.15-21.1-52.15-21.1a16.92,16.92,0,0,0-8.84,1.48c4.68,11.6,59.88,46.44,59.88,46.44Z" style="fill:#BA68C8"></path><path d="M375.38,256.89c17.14-4.3,36.6-43,36.6-43a126.54,126.54,0,0,1,5.58,15.69c-9.24,20.88-41.31,82.74-41.31,82.74Z" style="fill:#BA68C8"></path><path d="M272.83,180.65c4.89-2.15,6.24-1.54,6.24-1.54s19.65,23.22,46.43,24l3.45-37h26.33l-2.73,143.46,29.08,133.67H341.8l2.35-107.51-10.33,7.66L317,443.24h-14l20.72-221.92C308,210.92,276.32,189.31,272.83,180.65Z" style="opacity:0.1"></path><path d="M478.2,113.75c-.62-17.1-25-28.59-56.54-28A25.22,25.22,0,0,0,419,77.53C409.51,60,380.74,56.16,354.69,69A74.75,74.75,0,0,0,343,76.09C330,65,310.14,62.48,292.93,71.19c-14,7.1-23,20-25.06,33.7C261.71,106,253.7,114,248.35,125.1c-3.55,7.37-5.19,14.55-4.92,19.93-8.88,9.21-12.49,19.89-8.35,28.54,6.68,14,31,17.34,54.4,7.53,1.54-.64,3-1.33,4.47-2,14,12.65,41,13.91,65.7,1.75A80.2,80.2,0,0,0,381,165.69c6.36,7.47,17.53,13,30.48,14.15,18.35,1.63,34.07-6.11,37.88-17.81,8.58.91,16.1-1.77,19.73-7.92,3.34-5.67,2.66-13.07-1.1-20.11C474.67,127.74,478.45,120.76,478.2,113.75Z" style="fill:#BA68C8"></path><path d="M478.2,113.75c-.62-17.1-25-28.59-56.54-28A25.22,25.22,0,0,0,419,77.53C409.51,60,380.74,56.16,354.69,69A74.75,74.75,0,0,0,343,76.09C330,65,310.14,62.48,292.93,71.19c-14,7.1-23,20-25.06,33.7C261.71,106,253.7,114,248.35,125.1c-3.55,7.37-5.19,14.55-4.92,19.93-8.88,9.21-12.49,19.89-8.35,28.54,6.68,14,31,17.34,54.4,7.53,1.54-.64,3-1.33,4.47-2,14,12.65,41,13.91,65.7,1.75A80.2,80.2,0,0,0,381,165.69c6.36,7.47,17.53,13,30.48,14.15,18.35,1.63,34.07-6.11,37.88-17.81,8.58.91,16.1-1.77,19.73-7.92,3.34-5.67,2.66-13.07-1.1-20.11C474.67,127.74,478.45,120.76,478.2,113.75Z" style="opacity:0.2"></path><path d="M284.64,124.75s-.3,11,8.52,11.42C295.57,129.1,284.64,124.75,284.64,124.75Z" style="fill:#BA68C8"></path><path d="M261,161.77s9.89,4.84,13.93-3C269.52,153.63,261,161.77,261,161.77Z" style="fill:#BA68C8"></path><path d="M387.2,86.25s-10.77,2.3-9.1,11C385.53,97.9,387.2,86.25,387.2,86.25Z" style="fill:#BA68C8"></path><path d="M324.52,103.88s2.62,8.93,9.83,7C334.44,104.54,324.52,103.88,324.52,103.88Z" style="fill:#BA68C8"></path><path d="M270.73,87.08s2.62,8.93,9.82,7C280.65,87.74,270.73,87.08,270.73,87.08Z" style="fill:#BA68C8"></path><path d="M421.86,106.52s-8.91-2.7-11.22,4.4C415.87,114.46,421.86,106.52,421.86,106.52Z" style="fill:#BA68C8"></path><path d="M427.67,170.63s-1.19-9.23-8.61-8.42C418,168.42,427.67,170.63,427.67,170.63Z" style="fill:#BA68C8"></path><path d="M326.44,132.39s2.27,9,9.54,7.35C336.33,133.44,326.44,132.39,326.44,132.39Z" style="fill:#BA68C8"></path><path d="M354.77,155.85s1.35,9.2,8.76,8.26C364.5,157.88,354.77,155.85,354.77,155.85Z" style="fill:#BA68C8"></path><path d="M366.37,116.28s-9.17,1.62-8,9C364.62,126.07,366.37,116.28,366.37,116.28Z" style="fill:#BA68C8"></path><path d="M465,89.44s-9.23-1.19-10.33,6.2C460.35,98.26,465,89.44,465,89.44Z" style="fill:#BA68C8"></path><path d="M443.3,139.12s-4.85-7.94-11.3-4.18C433.54,141.05,443.3,139.12,443.3,139.12Z" style="fill:#BA68C8"></path><path d="M395.43,132.64s-7.89,4.94-4.05,11.34C397.48,142.37,395.43,132.64,395.43,132.64Z" style="fill:#BA68C8"></path><path d="M313.78,63s-7.88,4.94-4,11.34C315.83,72.73,313.78,63,313.78,63Z" style="fill:#BA68C8"></path><path d="M315.21,165.67s5.18,7.73,11.46,3.69C324.87,163.32,315.21,165.67,315.21,165.67Z" style="fill:#BA68C8"></path><path d="M435,208.2a30.5,30.5,0,0,0-9.91-1.38c.2-3.76-1.46-8.24-4.77-12-4.68-5.28-11.09-7.25-15.23-5-2.15-2.51-4.94-3.75-7.57-3-2.42.7-4.18,3-5,5.9-3.5,0-6.39.93-8.16,2.95-4.33,4.92-.56,14.53,8.4,22.66a9.69,9.69,0,0,0-1.42,3c-2,7.36,5,16,15.65,19.27,8,2.45,15.67,1.21,19.89-2.65l.08,0c11.89,3.67,23.31,0,25.53-8.27S446.9,211.87,435,208.2Z" style="fill:#BA68C8"></path><path d="M435,208.2a30.5,30.5,0,0,0-9.91-1.38c.2-3.76-1.46-8.24-4.77-12-4.68-5.28-11.09-7.25-15.23-5-2.15-2.51-4.94-3.75-7.57-3-2.42.7-4.18,3-5,5.9-3.5,0-6.39.93-8.16,2.95-4.33,4.92-.56,14.53,8.4,22.66a9.69,9.69,0,0,0-1.42,3c-2,7.36,5,16,15.65,19.27,8,2.45,15.67,1.21,19.89-2.65l.08,0c11.89,3.67,23.31,0,25.53-8.27S446.9,211.87,435,208.2Z" style="opacity:0.4"></path><polygon points="160.11 439.3 179.89 226.73 203.37 226.73 207.79 439.3 160.11 439.3" style="fill:#BA68C8"></polygon><path d="M198.87,311.7c17.33-3.58,39.2-38.79,39.2-38.79s2.89-.55,6.19,2.75c-4.4,15.13-47,72.07-47,72.07Z" style="fill:#BA68C8"></path><path d="M180.68,259.68c-13.5.05-26-20.35-26-20.35s-2-.64-4.65,1.43c1.83,11.18,28.68,44.79,28.68,44.79Z" style="fill:#BA68C8"></path><path d="M150.06,240.76c2.64-2.07,3.31-1.49,3.31-1.49s9,22.4,22.85,23.12l3.67-35.66,13.49,7,2.76,148.57,4.7,57.05H180.19l2.75-69.38-5.75,7.39-9.84,62h-7.24L174.41,280C166.74,270,151.43,249.11,150.06,240.76Z" style="opacity:0.1"></path><path d="M204.14,245c1.41-6.31,9.46-9.89,18-8a21.09,21.09,0,0,1,5,1.83c4.06-2.8,10.06-3.9,16.29-2.52a22,22,0,0,1,12.32,7.22,27.1,27.1,0,0,1,9,.5c11.22,2.5,18.83,11.25,17,19.55s-12.45,13-23.67,10.5a25.3,25.3,0,0,1-2.49-.67c-4.34,6.84-14.74,10.28-25.65,7.85-13-2.9-21.84-13-19.7-22.68.1-.46.24-.91.38-1.35C205.85,254.26,203.13,249.55,204.14,245Z" style="fill:#BA68C8"></path><path d="M204.14,245c1.41-6.31,9.46-9.89,18-8a21.09,21.09,0,0,1,5,1.83c4.06-2.8,10.06-3.9,16.29-2.52a22,22,0,0,1,12.32,7.22,27.1,27.1,0,0,1,9,.5c11.22,2.5,18.83,11.25,17,19.55s-12.45,13-23.67,10.5a25.3,25.3,0,0,1-2.49-.67c-4.34,6.84-14.74,10.28-25.65,7.85-13-2.9-21.84-13-19.7-22.68.1-.46.24-.91.38-1.35C205.85,254.26,203.13,249.55,204.14,245Z" style="opacity:0.4"></path><path d="M139.08,231.24c.46,0,.9,0,1.34.07,1.42-3.92,6.24-6.81,12-6.81,6.87,0,12.43,4.11,12.43,9.18a5.68,5.68,0,0,1-.05.72c2.74,1,4.64,3,4.64,5.43,0,3.33-3.65,6-8.15,6a10.6,10.6,0,0,1-2.74-.36,10.75,10.75,0,0,1-7.89,3.09,11.3,11.3,0,0,1-7-2.26,13.73,13.73,0,0,1-4.57.77c-5.91,0-10.71-3.55-10.71-7.93S133.17,231.24,139.08,231.24Z" style="fill:#BA68C8"></path><path d="M139.08,231.24c.46,0,.9,0,1.34.07,1.42-3.92,6.24-6.81,12-6.81,6.87,0,12.43,4.11,12.43,9.18a5.68,5.68,0,0,1-.05.72c2.74,1,4.64,3,4.64,5.43,0,3.33-3.65,6-8.15,6a10.6,10.6,0,0,1-2.74-.36,10.75,10.75,0,0,1-7.89,3.09,11.3,11.3,0,0,1-7-2.26,13.73,13.73,0,0,1-4.57.77c-5.91,0-10.71-3.55-10.71-7.93S133.17,231.24,139.08,231.24Z" style="opacity:0.4"></path><path d="M288.56,232.36c1.34-15.68-16-30.64-38.82-33.42-1.73-.21-3.43-.34-5.12-.4-4.26-14.72-22-27.34-44.13-30a64.14,64.14,0,0,0-24.67,1.6c-1.41-1.1-2.88-2.15-4.43-3.15-18.66-12-40.89-11.61-49.67.87-7.72,11-2.43,27.67,11.68,39.69a15.44,15.44,0,0,0-3.07,7.94c-1,11.92,12.2,23.29,29.51,25.41a44.31,44.31,0,0,0,10.67,0c6.07,7.47,16.83,13.2,29.45,14.74,10.62,1.3,20.46-.63,27.6-4.77a58.59,58.59,0,0,0,17.35,4.86C267.69,258.49,287.23,248,288.56,232.36Z" style="fill:#BA68C8"></path><path d="M288.56,232.36c1.34-15.68-16-30.64-38.82-33.42-1.73-.21-3.43-.34-5.12-.4-4.26-14.72-22-27.34-44.13-30a64.14,64.14,0,0,0-24.67,1.6c-1.41-1.1-2.88-2.15-4.43-3.15-18.66-12-40.89-11.61-49.67.87-7.72,11-2.43,27.67,11.68,39.69a15.44,15.44,0,0,0-3.07,7.94c-1,11.92,12.2,23.29,29.51,25.41a44.31,44.31,0,0,0,10.67,0c6.07,7.47,16.83,13.2,29.45,14.74,10.62,1.3,20.46-.63,27.6-4.77a58.59,58.59,0,0,0,17.35,4.86C267.69,258.49,287.23,248,288.56,232.36Z" style="opacity:0.2"></path><path d="M149.08,170.26s-5,8,1.35,12.17C155.29,178.24,149.08,170.26,149.08,170.26Z" style="fill:#BA68C8"></path><path d="M115.49,187.44s5.22,7.88,11.63,3.81C125.32,185.1,115.49,187.44,115.49,187.44Z" style="fill:#BA68C8"></path><path d="M234.52,176.23s6,7.33.21,12.25C229.38,184.94,234.52,176.23,234.52,176.23Z" style="fill:#BA68C8"></path><path d="M187.7,172.13s-1.93,7.76,4.26,9.44C194.77,176.94,187.7,172.13,187.7,172.13Z" style="fill:#BA68C8"></path><path d="M258.7,216.4s-5.43-5.88-10.23-1.62C250.8,219.67,258.7,216.4,258.7,216.4Z" style="fill:#BA68C8"></path><path d="M176.74,194.1s-2.25,7.67,3.87,9.59C183.61,199.18,176.74,194.1,176.74,194.1Z" style="fill:#BA68C8"></path><path d="M187.53,223.79s-3,7.41,2.91,9.94C193.87,229.53,187.53,223.79,187.53,223.79Z" style="fill:#BA68C8"></path><path d="M213.33,199.51s-7.5-2.78-9.85,3.19C207.78,206,213.33,199.51,213.33,199.51Z" style="fill:#BA68C8"></path><path d="M292.12,223.81s-6.32-4.9-10.35.1C284.88,228.35,292.12,223.81,292.12,223.81Z" style="fill:#BA68C8"></path><path d="M260.41,249.88s-.13-8-6.55-8C252.34,247.07,260.41,249.88,260.41,249.88Z" style="fill:#BA68C8"></path><path d="M227.76,224.27s-8,.23-7.94,6.64C225,232.37,227.76,224.27,227.76,224.27Z" style="fill:#BA68C8"></path><path d="M154,213.87s.48,8,6.89,7.73C162.13,216.33,154,213.87,154,213.87Z" style="fill:#BA68C8"></path><path d="M292.12,223.81a11.16,11.16,0,0,0-5.51-2.13c-5.1-11.3-19.39-20.61-36.87-22.74-1.73-.21-3.43-.34-5.12-.4a32.33,32.33,0,0,0-7.76-13c1.6-4.45-2.34-9.27-2.34-9.27a19.26,19.26,0,0,0-2,5.24c-8.08-6.61-19.33-11.43-32-13a64.14,64.14,0,0,0-24.67,1.6c-1.41-1.1-2.88-2.15-4.43-3.15-18.66-12-40.89-11.6-49.67.87-3.81,5.42-4.45,12.24-2.42,19.2a19.75,19.75,0,0,0-3.81.43,12.92,12.92,0,0,0,5.75,4.62A47.22,47.22,0,0,0,133.4,207.5a15.44,15.44,0,0,0-3.07,7.94c-.49,5.75,2.34,11.36,7.33,15.88-5.24.52-9.29,3.83-9.29,7.84,0,4.38,4.8,7.93,10.71,7.93a13.73,13.73,0,0,0,4.57-.77,11.29,11.29,0,0,0,7,2.26,13.19,13.19,0,0,0,2.39-.22l.35.67.06.11c.24.46.51.94.77,1.42l.26.45c.22.39.45.79.69,1.19l.24.43,1,1.61.1.17.94,1.51.29.46c.27.44.55.87.83,1.31l.27.42,1.12,1.7.13.2c.33.51.67,1,1,1.52l.33.49.9,1.32.29.42,1.17,1.69.17.24,1,1.46c.12.15.23.31.34.47l.92,1.29.27.37c.39.54.77,1.08,1.16,1.61l.2.28c.32.44.63.87.95,1.29l.34.47.82,1.12.3.4,1,1.39.24.32.8,1.07.31.41.71.94c.09.11.18.23.26.35l.81,1.06L160.11,439.3h47.68l-2.14-103c10.81-14.89,29-40.65,36.07-54.6,6.09-1,11.16-4,13.88-8.24.81.26,1.64.48,2.49.67,11.22,2.5,21.82-2.2,23.67-10.5,1.08-4.84-1.07-9.82-5.26-13.64,6.93-4.22,11.45-10.35,12.06-17.6a20.55,20.55,0,0,0-.58-6.81A16.65,16.65,0,0,0,292.12,223.81ZM177.76,247.48l-1.2,11.6c-6.94-2-13.27-8.43-17.31-13.45a10.43,10.43,0,0,0,2,.22c4,0,7.26-2.09,8-4.86.41,0,.83-.06,1.24-.11A35.06,35.06,0,0,0,177.76,247.48Zm27.32,61.77L204,256c1.65.08,3.27.07,4.86,0a17.16,17.16,0,0,0,1.8,1.29c-.14.44-.28.89-.38,1.35-2.14,9.63,6.68,19.78,19.7,22.68.72.16,1.44.29,2.16.4C225.74,290.52,215.19,303.61,205.08,309.25Z" style="fill:#fff;opacity:0.30000000000000004"></path><path d="M111.5,354.1C158.62,386.47,140,441.3,140,441.3H130C80.3,433.19,89.7,389.85,111.5,354.1Z" style="fill:#BA68C8"></path><path d="M111.5,354.1C158.62,386.47,140,441.3,140,441.3H130C80.3,433.19,89.7,389.85,111.5,354.1Z" style="opacity:0.2"></path><path d="M64.57,354.1c72.88,32.37,68.83,87.2,68.83,87.2H120.56C53.21,433.19,49.48,389.85,64.57,354.1Z" style="fill:#BA68C8"></path><path d="M64.57,354.1c72.88,32.37,68.83,87.2,68.83,87.2H120.56C53.21,433.19,49.48,389.85,64.57,354.1Z" style="opacity:0.4"></path><polygon points="173.68 441.6 142.18 135.5 115.3 135.5 119.08 441.6 173.68 441.6" style="fill:#BA68C8"></polygon><path d="M120.44,232.79c-19.85-4.09-44.89-44.42-44.89-44.42s-3.31-.63-7.09,3.15c5,17.33,53.87,82.54,53.87,82.54Z" style="fill:#BA68C8"></path><path d="M141.27,173.22c15.46.07,29.74-23.3,29.74-23.3s2.31-.73,5.33,1.64c-2.1,12.81-32.85,51.3-32.85,51.3Z" style="fill:#BA68C8"></path><path d="M176.34,151.56c-3-2.37-3.79-1.71-3.79-1.71s-10.32,25.66-26.17,26.48l-4.2-40.83-15.45,8,5.68,232.82L127,441.6h23.64l-3.15-79.44,6.58,8.45,11.27,71h8.3L148.45,196.48C157.24,185,174.77,161.12,176.34,151.56Z" style="opacity:0.1"></path><path d="M114.41,156.42c-1.61-7.22-10.84-11.32-20.61-9.14A24,24,0,0,0,88,149.37c-4.64-3.21-11.52-4.47-18.65-2.88a25.26,25.26,0,0,0-14.11,8.27,30.94,30.94,0,0,0-10.29.56c-12.85,2.86-21.56,12.89-19.44,22.39s14.25,14.89,27.1,12c1-.21,1.93-.48,2.85-.77,5,7.83,16.88,11.77,29.37,9,14.92-3.32,25-14.94,22.56-26a16,16,0,0,0-.44-1.54C112.45,167,115.56,161.62,114.41,156.42Z" style="fill:#BA68C8"></path><path d="M114.41,156.42c-1.61-7.22-10.84-11.32-20.61-9.14A24,24,0,0,0,88,149.37c-4.64-3.21-11.52-4.47-18.65-2.88a25.26,25.26,0,0,0-14.11,8.27,30.94,30.94,0,0,0-10.29.56c-12.85,2.86-21.56,12.89-19.44,22.39s14.25,14.89,27.1,12c1-.21,1.93-.48,2.85-.77,5,7.83,16.88,11.77,29.37,9,14.92-3.32,25-14.94,22.56-26a16,16,0,0,0-.44-1.54C112.45,167,115.56,161.62,114.41,156.42Z" style="opacity:0.4"></path><path d="M188.91,140.66c-.52,0-1,0-1.53.08-1.63-4.49-7.15-7.8-13.74-7.8-7.86,0-14.23,4.71-14.23,10.52a7.54,7.54,0,0,0,.06.82c-3.14,1.11-5.31,3.47-5.31,6.21,0,3.81,4.18,6.9,9.33,6.9a12.2,12.2,0,0,0,3.13-.41,12.4,12.4,0,0,0,9,3.53,12.94,12.94,0,0,0,8-2.58,15.93,15.93,0,0,0,5.23.87c6.77,0,12.27-4.06,12.27-9.07S195.68,140.66,188.91,140.66Z" style="fill:#BA68C8"></path><path d="M188.91,140.66c-.52,0-1,0-1.53.08-1.63-4.49-7.15-7.8-13.74-7.8-7.86,0-14.23,4.71-14.23,10.52a7.54,7.54,0,0,0,.06.82c-3.14,1.11-5.31,3.47-5.31,6.21,0,3.81,4.18,6.9,9.33,6.9a12.2,12.2,0,0,0,3.13-.41,12.4,12.4,0,0,0,9,3.53,12.94,12.94,0,0,0,8-2.58,15.93,15.93,0,0,0,5.23.87c6.77,0,12.27-4.06,12.27-9.07S195.68,140.66,188.91,140.66Z" style="opacity:0.4"></path><path d="M231,102.41c-4.37-17.48-28.76-27.23-54.46-21.79q-2.92.63-5.7,1.47c-10.08-14.36-34-21.45-59-16.16A73.42,73.42,0,0,0,85.71,76.82c-1.93-.66-3.92-1.26-6-1.77C55.08,69,31.13,77.67,26.26,94.44,22,109.21,33.9,125.32,53.65,133.1a17.64,17.64,0,0,0-.37,9.74c3.33,13.29,21.86,20.7,41.4,16.56a50.39,50.39,0,0,0,11.56-3.92c9.35,5.84,23.14,8.05,37.38,5,12-2.54,21.93-8.28,28.13-15.41a67.56,67.56,0,0,0,20.6-1.19C218.05,138.47,235.34,119.88,231,102.41Z" style="fill:#BA68C8"></path><path d="M231,102.41c-4.37-17.48-28.76-27.23-54.46-21.79q-2.92.63-5.7,1.47c-10.08-14.36-34-21.45-59-16.16A73.42,73.42,0,0,0,85.71,76.82c-1.93-.66-3.92-1.26-6-1.77C55.08,69,31.13,77.67,26.26,94.44,22,109.21,33.9,125.32,53.65,133.1a17.64,17.64,0,0,0-.37,9.74c3.33,13.29,21.86,20.7,41.4,16.56a50.39,50.39,0,0,0,11.56-3.92c9.35,5.84,23.14,8.05,37.38,5,12-2.54,21.93-8.28,28.13-15.41a67.56,67.56,0,0,0,20.6-1.19C218.05,138.47,235.34,119.88,231,102.41Z" style="opacity:0.2"></path><path d="M56.81,86.94s-2.44,10.55,6,12.68C66.49,93.28,56.81,86.94,56.81,86.94Z" style="fill:#BA68C8"></path><path d="M26.79,118s8.59,6.6,14-.19C36.58,111.84,26.79,118,26.79,118Z" style="fill:#BA68C8"></path><path d="M163.23,69.89s-10.84.1-10.92,8.79C159.34,80.79,163.23,69.89,163.23,69.89Z" style="fill:#BA68C8"></path><path d="M99.34,74.62s.78,9.13,8.11,8.64C108.78,77.2,99.34,74.62,99.34,74.62Z" style="fill:#BA68C8"></path><path d="M192.68,96.21s-8.06-4.35-11.67,2.05C185.35,102.69,192.68,96.21,192.68,96.21Z" style="fill:#BA68C8"></path><path d="M95.62,102.49s.42,9.14,7.76,9C105,105.44,95.62,102.49,95.62,102.49Z" style="fill:#BA68C8"></path><path d="M118.34,130.64s-.49,9.15,6.83,9.69C127.33,134.51,118.34,130.64,118.34,130.64Z" style="fill:#BA68C8"></path><path d="M137.27,94.77s-9.16-.23-9.48,7.11C133.67,103.86,137.27,94.77,137.27,94.77Z" style="fill:#BA68C8"></path><path d="M231.64,91.82s-8.67-2.95-11.17,4C225.48,99.43,231.64,91.82,231.64,91.82Z" style="fill:#BA68C8"></path><path d="M207,131.84s-3.12-8.61-10.08-6.25C197.19,131.79,207,131.84,207,131.84Z" style="fill:#BA68C8"></path><path d="M162.09,116.22s-8.57,3.22-6.13,10.15C162.16,126,162.09,116.22,162.09,116.22Z" style="fill:#BA68C8"></path><path d="M78.28,132.38s3.48,8.46,10.33,5.8C88.06,132,78.28,132.38,78.28,132.38Z" style="fill:#BA68C8"></path><path d="M129.41,325.62h0a5.66,5.66,0,0,1-5.86-5.44l-1.25-33.93a5.68,5.68,0,0,1,5.45-5.86h0a5.68,5.68,0,0,1,5.86,5.45l1.25,33.92A5.68,5.68,0,0,1,129.41,325.62Z" style="fill:#263238"></path><path d="M133.8,290.86C128.38,287,123,279.69,123,279.69s-1.57,1.43-.69,4.79c-3.81,1.09-8.68,7.75-9.66,10.25a10.33,10.33,0,0,0-5.44,0c2,4.45,16.17,22.37,27.63,23.32Z" style="fill:#BA68C8"></path><path d="M133.8,290.86C128.38,287,123,279.69,123,279.69s-1.57,1.43-.69,4.79c-3.81,1.09-8.68,7.75-9.66,10.25a10.33,10.33,0,0,0-5.44,0c2,4.45,16.17,22.37,27.63,23.32Z" style="fill:#fff;opacity:0.4"></path><path d="M124.68,288.85a5.3,5.3,0,0,0-4,3.91l-.06.25a4.13,4.13,0,0,1-2.92,3.14l-.06,0a5.35,5.35,0,1,0,6.83,6.37,1.89,1.89,0,0,0,0-.23,4.16,4.16,0,0,1,2.93-3.15l.06,0a5.35,5.35,0,0,0-2.88-10.29Z" style="fill:#BA68C8;opacity:0.4"></path><path d="M134.17,301a6.42,6.42,0,0,0-5,4.51c-1.4,5,.75,9.34,5.59,10.63Z" style="fill:#fff;opacity:0.4"></path><path d="M123.69,301.24a4.37,4.37,0,1,1-4.37-4.35A4.37,4.37,0,0,1,123.69,301.24Z" style="fill:#fff"></path><path d="M122.33,300.46a2.87,2.87,0,1,1-2.88-2.86A2.88,2.88,0,0,1,122.33,300.46Z" style="fill:#263238"></path><path d="M119.25,301.63a1.71,1.71,0,1,1-1.72-1.7A1.71,1.71,0,0,1,119.25,301.63Z" style="fill:#fff"></path><circle cx="125.92" cy="294.05" r="4.37" style="fill:#fff"></circle><path d="M128.4,293.5a2.87,2.87,0,1,1-2.87-2.86A2.86,2.86,0,0,1,128.4,293.5Z" style="fill:#263238"></path><path d="M125.32,294.68a1.71,1.71,0,1,1-1.71-1.71A1.71,1.71,0,0,1,125.32,294.68Z" style="fill:#fff"></path><path d="M125.9,299.1a2.72,2.72,0,0,0-1.45,2.52,4,4,0,0,0,1.93,1.56A4.22,4.22,0,0,0,125.9,299.1Z" style="fill:#BA68C8"></path><path d="M354.75,436.79c.41-9.2,9.54-4.22,14.28,2.41s2.06-6.93-6.94-17.49,4.07-17.48,14.9-6.93,4.64-3.2-2.8-13,3.1-18.11,14.68-8-9.37-21.45,12.33-24.05c17.25-2.07-11.5,32.4,5.44,23.73s20.11-1.48,8.41,8.31-23.86,23.53-8.44,13,25.47-3.62,11.9,6.93-16.09,19.2-8.47,12.56,12.84-6.68,9.26,2.52a18.92,18.92,0,0,1-5,6.8,6.58,6.58,0,0,1-4.43,1.68H356.44A17.44,17.44,0,0,1,354.75,436.79Z" style="fill:#BA68C8"></path><path d="M354.75,436.79c.41-9.2,9.54-4.22,14.28,2.41s2.06-6.93-6.94-17.49,4.07-17.48,14.9-6.93,4.64-3.2-2.8-13,3.1-18.11,14.68-8-9.37-21.45,12.33-24.05c17.25-2.07-11.5,32.4,5.44,23.73s20.11-1.48,8.41,8.31-23.86,23.53-8.44,13,25.47-3.62,11.9,6.93-16.09,19.2-8.47,12.56,12.84-6.68,9.26,2.52a18.92,18.92,0,0,1-5,6.8,6.58,6.58,0,0,1-4.43,1.68H356.44A17.44,17.44,0,0,1,354.75,436.79Z" style="opacity:0.4"></path></g><g id="freepik--Character--inject-12"><polygon points="230.27 423.91 225.87 441.1 217.64 439.08 222.03 421.88 230.27 423.91" style="fill:#BA68C8"></polygon><path d="M217.47,435.57l9.3,2a.59.59,0,0,1,.47.64l-.64,6.83a1.25,1.25,0,0,1-1.5,1.06c-2.92-.69-3.8-1.12-7.49-1.93-4.32-.94-5.85-.69-10.92-1.8-3.06-.67-2.92-3.88-1.55-3.89a20.69,20.69,0,0,0,10.35-2.75A2.66,2.66,0,0,1,217.47,435.57Z" style="fill:#263238"></path><polygon points="230.27 423.91 228 432.77 219.76 430.75 222.03 421.89 230.27 423.91" style="opacity:0.2"></polygon><path d="M245,357.67c9.81-28.86,17.58-62.91,17.58-62.91l-28-1.76s-4.12,44.19-6.27,64.57c-2.24,21.18-9.19,69-9.19,69l12.63,2.56S243.55,384.08,245,357.67Z" style="fill:#263238"></path><path d="M249.62,310.8l6.79,8.4c-1.73,6.48-3.75,13.77-6,21.22A146.51,146.51,0,0,1,249.62,310.8Z" style="opacity:0.2"></path><path d="M219.27,428.35l11.57,2.53a1,1,0,0,0,1.12-.62l1.28-3.74a1,1,0,0,0-.69-1.24l-12.57-3a1,1,0,0,0-1.17.87l-.3,4.15A1,1,0,0,0,219.27,428.35Z" style="fill:#263238"></path><path d="M219.27,428.35l11.57,2.53a1,1,0,0,0,1.12-.62l1.28-3.74a1,1,0,0,0-.69-1.24l-12.57-3a1,1,0,0,0-1.17.87l-.3,4.15A1,1,0,0,0,219.27,428.35Z" style="fill:#fff;opacity:0.1"></path><polygon points="279.94 423.31 280.46 441.05 271.97 440.93 271.45 423.19 279.94 423.31" style="fill:#BA68C8"></polygon><path d="M271.77,437.29l9,.14a.58.58,0,0,1,.59.53l.73,6.82a1.24,1.24,0,0,1-1.26,1.34c-3-.1-3.94-.34-7.72-.4-4.42-.07-5.38.48-10.57.4-3.13-.05-3.63-3.22-2.29-3.5a20.57,20.57,0,0,0,9.59-4.76A2.71,2.71,0,0,1,271.77,437.29Z" style="fill:#263238"></path><polygon points="279.94 423.31 280.21 432.46 271.72 432.34 271.45 423.19 279.94 423.31" style="opacity:0.2"></polygon><path d="M274.32,357.09c-2.4-30.37-.37-46.75-3.9-61.83L245,293.68s7.9,44.63,12.27,64.82,12.57,69.22,12.57,69.22l12.52.16S280.33,380.78,274.32,357.09Z" style="fill:#263238"></path><path d="M269.82,430l11.85.18a1,1,0,0,0,1-.89l.26-3.91a1,1,0,0,0-.93-1l-12.9-.4a1,1,0,0,0-1,1.14l.8,4.12A1,1,0,0,0,269.82,430Z" style="fill:#263238"></path><path d="M269.82,430l11.85.18a1,1,0,0,0,1-.89l.26-3.91a1,1,0,0,0-.93-1l-12.9-.4a1,1,0,0,0-1,1.14l.8,4.12A1,1,0,0,0,269.82,430Z" style="fill:#fff;opacity:0.1"></path><path d="M244.41,247.52c-1.08,2-2.19,3.68-3.36,5.48s-2.42,3.5-3.77,5.19a56.07,56.07,0,0,1-4.41,4.95,28.27,28.27,0,0,1-5.82,4.57l-.31.18a4.56,4.56,0,0,1-3.61.4,27.26,27.26,0,0,1-5.87-2.69,38.82,38.82,0,0,1-4.85-3.47,47.9,47.9,0,0,1-4.21-3.95,43.48,43.48,0,0,1-3.7-4.42,2.8,2.8,0,0,1,3.8-4l.15.1c1.38.89,2.87,1.89,4.32,2.77s2.92,1.76,4.39,2.54a44.2,44.2,0,0,0,4.37,2.08,22.27,22.27,0,0,0,4.15,1.26l-3.92.58a24.14,24.14,0,0,0,3.34-3.28c1.13-1.34,2.25-2.81,3.34-4.33s2.16-3.1,3.2-4.7,2.09-3.29,3-4.8l.07-.11a5.6,5.6,0,0,1,9.67,5.64Z" style="fill:#BA68C8"></path><path d="M233.6,293.16a11.07,11.07,0,0,0-.13,3.92.52.52,0,0,0,.25.36c.9.57,5.14,2.78,17,3.43,12.16.68,19-.67,20.77-1.09a.54.54,0,0,0,.42-.58l-.31-3.59a.54.54,0,0,0-.52-.5l-36.91-2.39A.55.55,0,0,0,233.6,293.16Z" style="fill:#BA68C8"></path><path d="M233.6,293.16a11.07,11.07,0,0,0-.13,3.92.52.52,0,0,0,.25.36c.9.57,5.14,2.78,17,3.43,12.16.68,19-.67,20.77-1.09a.54.54,0,0,0,.42-.58l-.31-3.59a.54.54,0,0,0-.52-.5l-36.91-2.39A.55.55,0,0,0,233.6,293.16Z" style="opacity:0.2"></path><g style="clip-path:url(#freepik--clip-path--inject-12)"><path d="M253.18,304.65a.85.85,0,0,1-.34-.08c-1.77-.69-2.51-2.84-2.46-4.66a17.82,17.82,0,0,1,.35-2.64,16.23,16.23,0,0,0,.34-2.6c0-1.23-.38-2.81-1.62-3.24a.46.46,0,0,0-.19,0c-.17,0-.22.39-.18.72a45.6,45.6,0,0,1,.36,7.2,7.9,7.9,0,0,1-.93,4.07,1.18,1.18,0,0,1-1.27.67,1,1,0,0,1-.47-.3,5,5,0,0,1-1-4.69c.13-.59.3-1.18.47-1.75a13,13,0,0,0,.61-2.81c.09-1.4-.46-3.14-1.87-3.64-.09,0-.12,0-.13,0h0a.7.7,0,0,0-.06.25,27.18,27.18,0,0,0,0,4.42,27,27,0,0,1,0,5,3.47,3.47,0,0,1-.59,1.66,1.55,1.55,0,0,1-1.78.53c-.87-.41-.89-1.63-.89-2,0-.59,0-1.18,0-1.78a20.19,20.19,0,0,0-.45-5.65c0-.22-.22-.71-.52-.73s-.36.18-.42.36a2,2,0,0,0,0,.81,51.54,51.54,0,0,1,.08,5.56,2.19,2.19,0,0,1-.84,1.94,1.56,1.56,0,0,1-1.9-.49,3.37,3.37,0,0,1-.63-1.77c-.11-.8-.15-1.63-.2-2.43a12.85,12.85,0,0,0-.81-4.75,18.7,18.7,0,0,0-.4,8.15.26.26,0,0,1-.21.31.25.25,0,0,1-.31-.21,19.14,19.14,0,0,1,.6-9.05.26.26,0,0,1,.22-.18.26.26,0,0,1,.26.13,12,12,0,0,1,1.19,5.57c0,.79.08,1.61.19,2.39a3,3,0,0,0,.51,1.5,1.05,1.05,0,0,0,1.23.36c.45-.25.54-.93.56-1.5a50.28,50.28,0,0,0-.07-5.49,2.47,2.47,0,0,1,.07-1,1,1,0,0,1,1-.7c.46,0,.82.42,1,1.11a21.08,21.08,0,0,1,.47,5.81c0,.59,0,1.18,0,1.76,0,.87.2,1.37.59,1.55a1,1,0,0,0,1.13-.37,2.93,2.93,0,0,0,.48-1.41,25.77,25.77,0,0,0,0-4.89,28.27,28.27,0,0,1,0-4.51c0-.38.19-.62.44-.7a.73.73,0,0,1,.47,0c1.68.6,2.33,2.59,2.22,4.18a13.07,13.07,0,0,1-.63,2.93c-.16.56-.33,1.14-.45,1.71-.18.85-.45,3,.83,4.2a.63.63,0,0,0,.24.17c.24.07.51-.2.67-.45a7.5,7.5,0,0,0,.85-3.79,47.05,47.05,0,0,0-.36-7.12c-.09-.73.14-1.24.62-1.32a1,1,0,0,1,.45.06c1.52.53,2,2.35,2,3.76a17.05,17.05,0,0,1-.34,2.69,16.93,16.93,0,0,0-.34,2.56c0,1.63.58,3.54,2.11,4.14.12.05.15,0,.16,0a.41.41,0,0,0,.09-.14,8.42,8.42,0,0,0,.51-3.12c0-1.6,0-3.22-.07-4.82l0-.51a17.52,17.52,0,0,1,0-3.69.76.76,0,0,1,.38-.6.7.7,0,0,1,.56.06,5,5,0,0,1,2.57,3.71,17.38,17.38,0,0,1,.26,2.95c0,.5,0,1,.07,1.5a6.32,6.32,0,0,0,1.4,3.92c.21.23.53.45.75.34a.75.75,0,0,0,.26-.27,7.81,7.81,0,0,0,1.16-4.75,26.6,26.6,0,0,0-.4-3.45c-.08-.54-.17-1.08-.24-1.63-.13-1,.16-1.73.79-1.9a1.32,1.32,0,0,1,1.21.4,4.73,4.73,0,0,1,1.22,3.79c0,.52-.05,1.05-.09,1.57-.11,1.67-.24,3.39.52,4.81.25.47.71.87,1.09.72s.44-.56.4-1.29l-.33-5.74a3.91,3.91,0,0,1,.14-1.65,1.57,1.57,0,0,1,1.37-1.08h0a1.66,1.66,0,0,1,.9.33,5,5,0,0,1,1.93,3.88c.05.41.08.83.11,1.25a10.85,10.85,0,0,0,.46,2.89,1.22,1.22,0,0,0,.53.66.22.22,0,0,0,.21,0,.27.27,0,0,1,.36.12.26.26,0,0,1-.12.36.78.78,0,0,1-.65,0,1.64,1.64,0,0,1-.83-1,11.29,11.29,0,0,1-.49-3c0-.4-.06-.81-.11-1.22a4.61,4.61,0,0,0-1.69-3.5,1.22,1.22,0,0,0-.62-.23,1,1,0,0,0-.88.73,3.81,3.81,0,0,0-.11,1.43l.33,5.7c.06,1-.19,1.63-.73,1.86-.71.29-1.41-.3-1.76-1a9.31,9.31,0,0,1-.58-5.1c0-.52.07-1,.09-1.55a4.25,4.25,0,0,0-1.05-3.38.91.91,0,0,0-.71-.28c-.41.1-.47.77-.4,1.31s.16,1.08.24,1.62a29,29,0,0,1,.41,3.51,8.31,8.31,0,0,1-1.26,5.07,1,1,0,0,1-1.84,0,6.77,6.77,0,0,1-1.54-4.25c0-.51-.06-1-.07-1.52a16.1,16.1,0,0,0-.26-2.86,4.54,4.54,0,0,0-2.26-3.34.39.39,0,0,0-.14,0,.65.65,0,0,0-.05.18,17,17,0,0,0,0,3.57l0,.52c.09,1.62.11,3.25.07,4.86a8.78,8.78,0,0,1-.55,3.32.8.8,0,0,1-.37.42A.47.47,0,0,1,253.18,304.65Z" style="fill:#BA68C8;opacity:0.9"></path></g><path d="M270.2,234.56A105.17,105.17,0,0,0,249,232.22,15.13,15.13,0,0,0,234,245.52c-1.34,11.45-1.37,28.67-1.19,48.16,8.71,3.6,24.34,4.46,39.19,2.48,2.22-11-.69-29.57,4.56-51.56A8.31,8.31,0,0,0,270.2,234.56Z" style="fill:#BA68C8"></path><path d="M270.13,247.07a22.06,22.06,0,0,0,3.48,16.74,127.37,127.37,0,0,1,1.62-13Z" style="opacity:0.2"></path><path d="M263.89,216.79c-1.12,4.3-2.43,11.86-.38,16a2,2,0,0,1-.51,2.44c-2.63,2-4.83,2.45-9.55,1.91-2.76-.32-6.18-1.7-4.87-3.77.28-.44.88-.47,1.22-.86,2.22-2.52,2.6-5.62,1.9-9.35Z" style="fill:#ffc3bd"></path><path d="M251.7,223.15a16,16,0,0,1,.31,3.35c2.1.11,4.95-.81,5.92-2.38a12.86,12.86,0,0,0,1.42-5Z" style="opacity:0.2"></path><path d="M265.68,209.49c-1,6.59-1.23,10.5-4.88,13.58-5.49,4.63-13.41.8-14.42-6-.9-6.09.87-15.85,7.6-17.86A9.18,9.18,0,0,1,265.68,209.49Z" style="fill:#ffc3bd"></path><path d="M265.36,215.13c-5.12.1-3.24-3.71-3.32-6.25-1.09.57-4.79-1.33-3.8-3.73a12,12,0,0,1-6.33,1.2c-3.12-.39-3.67-1.44-4-2.86s-.13-2.6,4-4.29,9.62.17,9.62.17,7-2.94,8.7,4.44C272.65,206.18,270.7,215.09,265.36,215.13Z" style="fill:#263238"></path><path d="M267.4,216.07a5.5,5.5,0,0,1-3.65,1.71c-1.75.06-2-1.73-1-3.27.91-1.39,2.91-3.08,4.42-2.41S268.63,214.78,267.4,216.07Z" style="fill:#ffc3bd"></path><path d="M255.8,210c0,.54-.37.95-.72.91s-.6-.5-.55-1,.37-1,.72-.91S255.85,209.46,255.8,210Z" style="fill:#263238"></path><path d="M249.41,209.57c0,.54-.37,1-.72.92s-.6-.5-.55-1,.37-.95.72-.92S249.46,209,249.41,209.57Z" style="fill:#263238"></path><path d="M251.76,209.67a19.4,19.4,0,0,1-3,4.37,3.13,3.13,0,0,0,2.53.73Z" style="fill:#ed847e"></path><path d="M252.6,217.33a4.44,4.44,0,0,0,3.33-1.14.16.16,0,1,0-.23-.23,4.24,4.24,0,0,1-3.75,1,.15.15,0,0,0-.18.12.16.16,0,0,0,.12.19A4.6,4.6,0,0,0,252.6,217.33Z" style="fill:#263238"></path><path d="M257.35,208.92a.3.3,0,0,0,.16,0,.32.32,0,0,0,.16-.42,3.23,3.23,0,0,0-2.22-1.9.32.32,0,1,0-.1.63h0a2.58,2.58,0,0,1,1.74,1.52A.32.32,0,0,0,257.35,208.92Z" style="fill:#263238"></path><path d="M246.82,207.67a.32.32,0,0,0,.27-.11,2.51,2.51,0,0,1,2.07-1,.32.32,0,0,0,.35-.28.33.33,0,0,0-.29-.35,3.11,3.11,0,0,0-2.62,1.23.31.31,0,0,0,.05.44A.28.28,0,0,0,246.82,207.67Z" style="fill:#263238"></path><path d="M275.3,237.72a116.22,116.22,0,0,1,7.37,12.54c1.1,2.19,2.15,4.43,3.07,6.79a37.17,37.17,0,0,1,2.26,7.82c.06.37.11.76.14,1.17l.06.62v.67c0,.21,0,.46,0,.65l0,.57c0,.37-.05.75-.1,1.11a24.51,24.51,0,0,1-.87,4.16,36.35,36.35,0,0,1-3,7.26A53.25,53.25,0,0,1,275.25,293a2.79,2.79,0,0,1-4.46-3.24l.1-.19,1.53-2.94c.51-1,1-2,1.44-3,.92-2,1.78-4,2.47-6.06a35.74,35.74,0,0,0,1.57-5.93,17.64,17.64,0,0,0,.23-2.73,4.53,4.53,0,0,0,0-.64V268a1.18,1.18,0,0,0,0-.21l0-.21-.05-.25a5.31,5.31,0,0,0-.13-.55,33.37,33.37,0,0,0-2.06-5.46c-.92-1.92-1.91-3.88-3-5.82-2.13-3.87-4.51-7.82-6.84-11.54l-.06-.09a5.6,5.6,0,0,1,9.38-6.1Z" style="fill:#BA68C8"></path><path d="M272.12,288.34l-6.2,2.81,5.32,6.19s5.3-3.23,4-6.32Z" style="fill:#ffc3bd"></path><path d="M263.38,297.74l2.23,1.86a2.36,2.36,0,0,0,3.05,0l2.58-2.23-5.32-6.19-2.81,3.23A2.35,2.35,0,0,0,263.38,297.74Z" style="fill:#ffc3bd"></path><path d="M197.82,252.26l.32-3.63a1.56,1.56,0,0,1,1.47-1.42h0a7.56,7.56,0,0,1,3.32.6l4.66,2,.15,4.15c-1.44,3-7.39,1.27-7.39,1.27l-.49-.12A2.7,2.7,0,0,1,197.82,252.26Z" style="fill:#ffc3bd"></path><path d="M248.28,228.3c-.63.63.13,2.92-.77,4.63s.81,4.07,4.51,4.63,10.63,1.1,13.18-1.6.91-7.12-.3-8.13-1.89.3-4.89.34S250.48,226.12,248.28,228.3Z" style="fill:#BA68C8"></path><path d="M248.28,228.3c-.63.63.13,2.92-.77,4.63s.81,4.07,4.51,4.63,10.63,1.1,13.18-1.6.91-7.12-.3-8.13-1.89.3-4.89.34S250.48,226.12,248.28,228.3Z" style="opacity:0.2"></path><g style="clip-path:url(#freepik--clip-path-2--inject-12)"><path d="M252.77,240.89l-.18,0a1,1,0,0,1-.49-.4c-.78-1.16-.54-2.71-.25-4.07l1.3-6.22a5.66,5.66,0,0,0,.08-3.2c-.11-.28-.27-.47-.41-.47s-.26.08-.47.47a17.62,17.62,0,0,0-1.64,6.05,28.65,28.65,0,0,1-.84,4.18,2.8,2.8,0,0,1-1.34,1.89.28.28,0,0,1-.22,0,.29.29,0,0,1-.14-.17,6.44,6.44,0,0,1-.06-2.43,37.28,37.28,0,0,1,2.08-10.29.27.27,0,0,1,.35-.14.26.26,0,0,1,.15.35,36.63,36.63,0,0,0-2.05,10.14,7.33,7.33,0,0,0,0,1.87,3,3,0,0,0,.75-1.38,29.46,29.46,0,0,0,.82-4.1,18.42,18.42,0,0,1,1.7-6.23c.1-.19.39-.76,1-.74.38,0,.71.3.9.81a6.15,6.15,0,0,1,0,3.5l-1.31,6.22c-.26,1.25-.49,2.67.17,3.66a.48.48,0,0,0,.2.19c.12,0,.29-.17.43-.48a27.89,27.89,0,0,0,1.83-7.51c.15-1,.31-2.11.51-3.16.26-1.37.78-3.27,2.23-4a.26.26,0,0,1,.21,0,.26.26,0,0,1,.16.13,6.41,6.41,0,0,1,.57,2.68,24.56,24.56,0,0,1-.6,5.28,19.71,19.71,0,0,0-.51,6.16c.05.36.17.81.44.91a.59.59,0,0,0,.39,0,2.14,2.14,0,0,0,1.23-1.44,6.29,6.29,0,0,0,.22-2.19c0-1-.12-2-.2-3a21.18,21.18,0,0,1,.31-7.86c.17-.59.45-.91.83-.95s.78.29,1,.9a11.71,11.71,0,0,1,.55,2.86c.07.87.12,1.76.16,2.62.14,2.74.28,5.58,1.45,8,.13.26.33.61.59.66s.63-.34.72-.47a4.72,4.72,0,0,0,.55-3.47,15.28,15.28,0,0,0-1-3l-.24-.6a33.62,33.62,0,0,1-1.81-6.37,4.48,4.48,0,0,1,0-2.24,1.63,1.63,0,0,1,1.84-1.2.26.26,0,0,1,.18.33.26.26,0,0,1-.33.18c-.48-.14-1,.33-1.19.86a4.1,4.1,0,0,0,0,2,33.39,33.39,0,0,0,1.78,6.28l.24.59a16.58,16.58,0,0,1,1,3.06,5.25,5.25,0,0,1-.64,3.88,1.33,1.33,0,0,1-1.27.69,1.54,1.54,0,0,1-1-.95c-1.22-2.5-1.37-5.39-1.51-8.18,0-.86-.08-1.75-.16-2.6a10.42,10.42,0,0,0-.52-2.73c-.1-.27-.27-.54-.43-.54h0c-.14,0-.28.22-.38.57a20.65,20.65,0,0,0-.29,7.65c.09,1,.17,2.06.21,3.08a7,7,0,0,1-.25,2.37,2.67,2.67,0,0,1-1.57,1.79,1.14,1.14,0,0,1-.75,0c-.42-.16-.68-.61-.78-1.34a20.09,20.09,0,0,1,.51-6.33,23.69,23.69,0,0,0,.59-5.17,6.16,6.16,0,0,0-.39-2.18c-1.07.73-1.49,2.33-1.72,3.51-.19,1-.35,2.1-.5,3.13a28.25,28.25,0,0,1-1.87,7.66C253.43,240.61,253.11,240.89,252.77,240.89Z" style="fill:#BA68C8;opacity:0.9"></path></g><path d="M274.39,295.72c.44,0,1.06-1.34,2-1.74s1.27-2.11.31-3.8-3-4.64-4.81-4.45-3,2.78-3,3.7.71.61,1.69,1.76S272.87,295.82,274.39,295.72Z" style="fill:#BA68C8"></path><path d="M274.39,295.72c.44,0,1.06-1.34,2-1.74s1.27-2.11.31-3.8-3-4.64-4.81-4.45-3,2.78-3,3.7.71.61,1.69,1.76S272.87,295.82,274.39,295.72Z" style="opacity:0.2"></path><g style="clip-path:url(#freepik--clip-path-3--inject-12)"><path d="M274.18,297.38a.27.27,0,0,1-.25-.16.26.26,0,0,1,.14-.35,15.4,15.4,0,0,0,4.51-3.55,3.86,3.86,0,0,0,.63-.76,1.09,1.09,0,0,0-.67.22,11.6,11.6,0,0,0-1.81,1.43,7.79,7.79,0,0,1-3.08,2,.74.74,0,0,1-.82-.2,1.05,1.05,0,0,1-.12-.9,3.21,3.21,0,0,1,1.32-1.67l2.81-2.16a2.41,2.41,0,0,0,1.17-1.72.33.33,0,0,0,0-.19c0-.07-.2,0-.24,0a11.63,11.63,0,0,0-3.47,2.45c-.44.4-.9.81-1.36,1.19a2.49,2.49,0,0,1-2.63.66.26.26,0,0,1-.15-.28,4.07,4.07,0,0,1,.71-1.61,11.08,11.08,0,0,1,2.18-2.15,8.77,8.77,0,0,0,2.39-2.54.72.72,0,0,0,.11-.62.48.48,0,0,0-.18-.2.88.88,0,0,0-.94,0,3,3,0,0,0-.83.86c-.34.48-.67,1-1,1.52a10,10,0,0,1-3,3.53c-.47.28-.75.11-.88,0a1,1,0,0,1-.15-1,6.72,6.72,0,0,1,.77-1.66c.28-.45.57-.88.86-1.32a11.39,11.39,0,0,0,2.14-4.47.91.91,0,0,0,0-.61.41.41,0,0,0-.41-.15,2,2,0,0,0-1.38,1.23,9.83,9.83,0,0,0-.59,1.88l-.11.41a21,21,0,0,1-1.43,4,2.33,2.33,0,0,1-.87,1.09,1.08,1.08,0,0,1-.79.07,1.06,1.06,0,0,1-.64-.55.27.27,0,0,1,.11-.36.26.26,0,0,1,.36.12.54.54,0,0,0,.33.27.5.5,0,0,0,.38,0,1.9,1.9,0,0,0,.64-.85,19.82,19.82,0,0,0,1.39-3.88l.11-.41a9.8,9.8,0,0,1,.63-2,2.47,2.47,0,0,1,1.79-1.53.93.93,0,0,1,.93.41,1.39,1.39,0,0,1,.11,1,12,12,0,0,1-2.22,4.67c-.29.43-.58.86-.85,1.3a6.28,6.28,0,0,0-.72,1.52.56.56,0,0,0,0,.48s.17,0,.22-.06a9.84,9.84,0,0,0,2.81-3.35c.32-.52.65-1,1-1.55a3.25,3.25,0,0,1,1-1,1.4,1.4,0,0,1,1.51,0,1.07,1.07,0,0,1,.36.41,1.2,1.2,0,0,1-.13,1.1,9.37,9.37,0,0,1-2.52,2.71,10.61,10.61,0,0,0-2.09,2,3.67,3.67,0,0,0-.56,1.17c.52.16,1.1-.06,1.86-.67.46-.36.91-.77,1.35-1.17a11.78,11.78,0,0,1,3.63-2.55.69.69,0,0,1,.91.25.92.92,0,0,1,.08.47,2.87,2.87,0,0,1-1.38,2.11l-2.82,2.17a2.62,2.62,0,0,0-1.12,1.38.52.52,0,0,0,0,.42s.06.08.27,0a7.24,7.24,0,0,0,2.85-1.87,13.05,13.05,0,0,1,1.9-1.5,1.41,1.41,0,0,1,1.44-.14.26.26,0,0,1,.11.32,3.38,3.38,0,0,1-.86,1.21,16,16,0,0,1-4.68,3.66A.18.18,0,0,1,274.18,297.38Z" style="fill:#BA68C8;opacity:0.9"></path></g><path d="M203.49,256.47c.17.4,1.62.54,2.31,1.28s2.42.48,3.68-1,3.35-4.38,2.54-6-3.63-1.84-4.49-1.53-.33.88-1.08,2.2S202.87,255.07,203.49,256.47Z" style="fill:#BA68C8"></path><path d="M203.49,256.47c.17.4,1.62.54,2.31,1.28s2.42.48,3.68-1,3.35-4.38,2.54-6-3.63-1.84-4.49-1.53-.33.88-1.08,2.2S202.87,255.07,203.49,256.47Z" style="opacity:0.2"></path><g style="clip-path:url(#freepik--clip-path-4--inject-12)"><path d="M208.38,260.47a3.32,3.32,0,0,1-1.43-.4,15.94,15.94,0,0,1-5-3.14.27.27,0,0,1,.39-.37,15.51,15.51,0,0,0,4.87,3,3.39,3.39,0,0,0,.94.33,1.2,1.2,0,0,0-.44-.55,11.41,11.41,0,0,0-2-1.21,7.84,7.84,0,0,1-2.92-2.21.74.74,0,0,1-.09-.84,1,1,0,0,1,.8-.42,3.17,3.17,0,0,1,2,.66l3,1.91a2.41,2.41,0,0,0,2,.51.33.33,0,0,0,.17-.08c.06-.07-.05-.2-.08-.23a11.34,11.34,0,0,0-3.49-2.42c-.53-.28-1.07-.57-1.58-.88a2.48,2.48,0,0,1-1.52-2.24.28.28,0,0,1,.21-.24,3.94,3.94,0,0,1,1.75.12,10.87,10.87,0,0,1,2.77,1.31,8.82,8.82,0,0,0,3.21,1.38.72.72,0,0,0,.62-.11.42.42,0,0,0,.12-.23.89.89,0,0,0-.31-.9,2.81,2.81,0,0,0-1.08-.48c-.57-.16-1.18-.29-1.77-.41a10.08,10.08,0,0,1-4.34-1.6c-.42-.34-.36-.67-.28-.83a1,1,0,0,1,.89-.48,6.48,6.48,0,0,1,1.82.15c.52.11,1,.24,1.54.36a11.41,11.41,0,0,0,4.93.48,1,1,0,0,0,.56-.24.41.41,0,0,0,0-.44,1.94,1.94,0,0,0-1.62-.87,9.51,9.51,0,0,0-2,.09l-.41,0a20.76,20.76,0,0,1-4.24,0,2.31,2.31,0,0,1-1.32-.45,1,1,0,0,1-.34-.72,1.12,1.12,0,0,1,.29-.79.27.27,0,0,1,.38,0,.26.26,0,0,1,0,.37.51.51,0,0,0-.15.41.47.47,0,0,0,.15.34,2,2,0,0,0,1,.31,20.27,20.27,0,0,0,4.12,0l.42,0a10.38,10.38,0,0,1,2.08-.08,2.44,2.44,0,0,1,2,1.16.92.92,0,0,1-.06,1,1.4,1.4,0,0,1-.89.44,11.88,11.88,0,0,1-5.15-.49c-.51-.12-1-.25-1.51-.35a6,6,0,0,0-1.68-.15c-.22,0-.4.09-.44.18s.08.15.13.18a9.59,9.59,0,0,0,4.11,1.5c.59.12,1.21.25,1.8.41a3.32,3.32,0,0,1,1.29.6,1.37,1.37,0,0,1,.48,1.43,1.06,1.06,0,0,1-.26.48,1.22,1.22,0,0,1-1.08.26,9.13,9.13,0,0,1-3.4-1.45,10.7,10.7,0,0,0-2.64-1.26,3.5,3.5,0,0,0-1.29-.13c0,.54.43,1,1.26,1.52.5.31,1,.59,1.56.87A11.9,11.9,0,0,1,211,257.1a.69.69,0,0,1,.07.94,1,1,0,0,1-.41.23,2.9,2.9,0,0,1-2.46-.57l-3-1.91a2.64,2.64,0,0,0-1.68-.58.53.53,0,0,0-.39.17s-.05.08.07.26a7.28,7.28,0,0,0,2.74,2,12.78,12.78,0,0,1,2,1.28,1.4,1.4,0,0,1,.63,1.3.26.26,0,0,1-.26.22Z" style="fill:#BA68C8;opacity:0.9"></path></g><path d="M270.12,233.91c-3.5-1.17-5.48-1.25-6.66,2.05-2.7,7.51-4.16,29.12-4.16,35.9,0,4.51,12.68,6,14.49,4.51,2-1.68.23-33.25,1.77-38.45a1.75,1.75,0,0,0-.32-1.65C274.33,235.21,272.59,234.73,270.12,233.91Z" style="fill:#263238"></path><g style="clip-path:url(#freepik--clip-path-5--inject-12)"><path d="M276.2,243.55a.22.22,0,0,1-.15-.06c-2.47-1.94-9.28-3.94-15.42-3.82a.26.26,0,0,1-.25-.25.24.24,0,0,1,.24-.25c5.67-.11,12.89,1.69,15.74,3.93a.26.26,0,0,1,0,.35A.25.25,0,0,1,276.2,243.55Z" style="opacity:0.7000000000000001"></path><path d="M280,256.8a.25.25,0,0,1-.16-.06c-2.38-1.89-4.53-3-10.37-4.37a39.18,39.18,0,0,0-12-1,.24.24,0,0,1-.27-.23.25.25,0,0,1,.23-.27,40.16,40.16,0,0,1,12.13,1c5.93,1.37,8.13,2.54,10.57,4.47a.24.24,0,0,1,0,.35A.26.26,0,0,1,280,256.8Z" style="opacity:0.7000000000000001"></path><path d="M278.56,267.65a.27.27,0,0,1-.15,0c-1.78-1.31-10.09-4-23.23-3.62h0a.25.25,0,0,1-.25-.25.24.24,0,0,1,.24-.25c13.24-.41,21.71,2.38,23.53,3.72a.24.24,0,0,1,.06.34A.26.26,0,0,1,278.56,267.65Z" style="opacity:0.7000000000000001"></path></g><path d="M270.45,248.74c-.13.16-.47.12-.62.25s-.14.49-.3.6-.48-.05-.67,0-.28.42-.48.46-.43-.2-.63-.19-.42.29-.61.26-.34-.34-.53-.41-.48.12-.66,0-.18-.44-.34-.57-.5-.08-.63-.24,0-.48-.11-.66-.44-.25-.51-.45.17-.46.13-.66-.32-.39-.32-.59.31-.38.34-.58-.18-.47-.11-.67.41-.26.51-.44,0-.5.1-.67.47-.11.62-.25.13-.48.3-.59.48,0,.66,0,.29-.41.48-.45.44.2.64.19.41-.29.61-.26.33.34.53.41.48-.12.66,0,.18.44.34.57.5.08.63.23,0,.49.11.67.44.25.5.45-.16.45-.13.66.33.38.33.59-.31.38-.34.58.18.47.11.66-.41.27-.51.45S270.58,248.58,270.45,248.74Z" style="fill:#fff"></path><path d="M240.61,233.25c-2.41,1.11-4.32,2.3-5.17,5.45-2.41,8.87-4,25.79-4.7,32.5s9.2,2.76,10.46,1,.56-20.32,5.66-38.77a1.88,1.88,0,0,0-.05-1.51C246.26,231.22,242.82,232.22,240.61,233.25Z" style="fill:#263238"></path><g style="clip-path:url(#freepik--clip-path-6--inject-12)"><path d="M231.31,244a.27.27,0,0,1-.19-.08.25.25,0,0,1,0-.35c2.9-2.64,10.15-5.45,15.82-6.13a.24.24,0,0,1,.27.22.25.25,0,0,1-.21.28c-6.16.74-13,3.7-15.54,6A.27.27,0,0,1,231.31,244Z" style="opacity:0.7000000000000001"></path><path d="M227.13,257.8a.24.24,0,0,1-.19-.08.25.25,0,0,1,0-.35c2.48-2.28,4.72-3.75,10.67-5.94a42.75,42.75,0,0,1,12.15-2.66.26.26,0,0,1,.27.24.25.25,0,0,1-.24.26,42.36,42.36,0,0,0-12,2.62c-5.88,2.17-8.08,3.62-10.51,5.85A.27.27,0,0,1,227.13,257.8Z" style="opacity:0.7000000000000001"></path><path d="M228.27,268.5a.25.25,0,0,1-.19-.09.24.24,0,0,1,0-.35c1.85-1.59,10.38-5.56,23.61-7a.24.24,0,0,1,.27.22.23.23,0,0,1-.22.27c-13.11,1.42-21.52,5.32-23.34,6.88A.23.23,0,0,1,228.27,268.5Z" style="opacity:0.7000000000000001"></path></g><path d="M249,201.73a11.51,11.51,0,0,1,8.92-6.46c8.12-1.13,13.88,4,14.43,10.65.44,5.46-2.55,5.35-2.55,5.35C263.51,206.09,256.68,201.75,249,201.73Z" style="fill:#BA68C8"></path><path d="M248.27,200.92c-1.69,2.2-2.2,4-1.06,4.6s7.13-1.56,12.24,1.19c5.91,3.17,8.44,8.84,9.24,8.46a4.71,4.71,0,0,0,2.89-4.43c-.34-2.41-5.92-7.34-10.15-9.34S249.56,199.24,248.27,200.92Z" style="fill:#BA68C8"></path><path d="M248.27,200.92c-1.69,2.2-2.2,4-1.06,4.6s7.13-1.56,12.24,1.19c5.91,3.17,8.44,8.84,9.24,8.46a4.71,4.71,0,0,0,2.89-4.43c-.34-2.41-5.92-7.34-10.15-9.34S249.56,199.24,248.27,200.92Z" style="opacity:0.2"></path><polygon points="182.04 445.35 192.44 329.38 194.03 328.83 203.15 230.99 206.01 229.81 200.82 282.23 200.88 293.23 199.95 304.49 198.92 305.68 192.5 368.67 193.43 371.36 183.94 445.71 182.04 445.35" style="fill:#BA68C8"></polygon><polygon points="182.04 445.35 192.44 329.38 194.03 328.83 203.15 230.99 206.01 229.81 200.82 282.23 200.88 293.23 199.95 304.49 198.92 305.68 192.5 368.67 193.43 371.36 183.94 445.71 182.04 445.35" style="opacity:0.4"></polygon><path d="M207,249.58c0-2.62-1.8-2.66-3.8-4.76-.23-.24-1,.16-.9.73a2.67,2.67,0,0,0,1,1.82c-.32.76-.61,3.69,1.16,5.34A3.39,3.39,0,0,0,207,249.58Z" style="fill:#ffc3bd"></path></g></svg>